<svg id="Calque_1" data-name="Calque 1" xmlns="http://www.w3.org/2000/svg" viewBox="0 0 36 29"><defs><style>.cls-1{fill:#efd7bc;}</style></defs><title>twitter</title><path class="cls-1" d="M42,12.43a14.69,14.69,0,0,1-4.25,1.16A7.36,7.36,0,0,0,41,9.53a14.85,14.85,0,0,1-4.69,1.78,7.4,7.4,0,0,0-12.77,5A7.7,7.7,0,0,0,23.73,18,21.07,21.07,0,0,1,8.51,10.34a7.22,7.22,0,0,0-1,3.68,7.32,7.32,0,0,0,3.28,6.1,7.58,7.58,0,0,1-3.35-.92v.09a7.34,7.34,0,0,0,5.93,7.18,7.32,7.32,0,0,1-1.94.26A8,8,0,0,1,10,26.6a7.42,7.42,0,0,0,6.9,5.09,14.92,14.92,0,0,1-9.17,3.13A17,17,0,0,1,6,34.72,21.09,21.09,0,0,0,17.32,38c13.59,0,21-11.16,21-20.83,0-.32,0-.64,0-1A14.61,14.61,0,0,0,42,12.43" transform="translate(-6 -9)"/></svg>