<?xml version="1.0" encoding="UTF-8" standalone="no"?>
<svg
   xmlns:dc="http://purl.org/dc/elements/1.1/"
   xmlns:cc="http://creativecommons.org/ns#"
   xmlns:rdf="http://www.w3.org/1999/02/22-rdf-syntax-ns#"
   xmlns:svg="http://www.w3.org/2000/svg"
   xmlns="http://www.w3.org/2000/svg"
   version="1.0"
   id="katman_1"
   x="0px"
   y="0px"
   viewBox="0 0 1700 1200"
   style="enable-background:new 0 0 1700 1200;"
   xml:space="preserve"><metadata
   id="metadata29"><rdf:RDF><cc:Work
       rdf:about=""><dc:format>image/svg+xml</dc:format><dc:type
         rdf:resource="http://purl.org/dc/dcmitype/StillImage" /><dc:title></dc:title></cc:Work></rdf:RDF></metadata><defs
   id="defs27" />
<style
   type="text/css"
   id="style2">
</style>









<path
   class="st0"
   d="m 1199.5957,343.34572 98.3058,115.91297 c 11.2491,13.20527 21.0307,23.47604 25.4325,29.83414 29.345,29.34504 45.974,68.96087 45.974,110.04396 -2.9347,48.41935 -34.236,81.67706 -63.5811,117.38023 l -68.9607,80.69889 -35.7032,42.06126 c -1.4673,1.46724 -1.9565,3.42358 -2.4455,5.37992 -0.4891,1.95634 0,3.91267 0.9782,5.37993 0.9781,1.95634 1.9563,3.42359 3.9126,4.40176 1.4673,0.97817 3.4237,1.46725 5.3799,1.46725 h 358.9878 c 54.7776,0 123.7384,45.97392 119.8257,115.91298 0,31.79049 -13.2052,62.11369 -35.7031,84.61159 -22.987,22.4979 -53.7993,35.2141 -86.0788,35.2141 h -562.4469 c -37.17032,0 -136.45444,3.9127 -164.33223,-80.6989 -5.86901,-17.60709 -6.84719,-36.68137 -2.44542,-54.77749 8.31443,-26.89964 21.03062,-52.33202 37.65948,-74.82989 28.36689,-42.06125 58.69011,-83.63343 89.01335,-124.22741 39.12662,-53.31019 78.74242,-104.66404 118.35832,-158.95239 1.4671,-1.95633 1.9563,-3.91267 1.9563,-6.35809 0,-2.44543 -0.9781,-4.40177 -1.9563,-6.35811 L 938.91385,417.68651 c -0.97816,-0.97816 -1.95633,-1.95632 -3.42358,-2.9345 -1.46725,-0.48908 -2.93451,-0.97816 -4.40177,-0.97816 -1.46724,0 -2.9345,0.48908 -4.40175,0.97816 -1.46726,0.48908 -2.44542,1.46726 -3.42359,2.9345 -38.14858,50.86478 -205.90448,276.33262 -241.60763,322.30655 -35.70316,45.48484 -123.73832,48.41934 -172.64675,0 L 285.49726,518.92696 c -1.46726,-1.46725 -3.4236,-2.44543 -5.37993,-2.93451 -1.95634,-0.48908 -3.91268,0 -5.86901,0.48908 -1.95634,0.97818 -3.42359,1.95634 -4.40176,3.91268 -0.97816,1.46725 -1.95634,3.42359 -1.46726,5.37993 v 425.01424 c 0.4891,30.32322 -8.31442,59.66832 -25.92145,84.61162 -17.60703,24.9432 -42.06125,43.5285 -70.91721,53.7992 -18.58521,6.3582 -38.14858,8.3145 -57.22286,5.38 -19.074301,-2.9345 -37.659505,-9.7818 -53.310193,-21.0307 C 44.867794,1062.2997 32.151622,1047.6271 23.348108,1030.5091 14.544582,1013.3912 9.6537373,994.31688 9.6537373,975.24259 V 210.80388 C 11.120995,183.41515 20.902685,157.0046 38.509702,134.99581 56.116742,113.4761 79.592791,97.825398 106.49243,90.489153 c 22.98695,-5.86902 47.44118,-5.86902 70.42812,0 22.98697,6.358081 44.0176,18.096097 61.13554,35.214057 l 343.82625,338.9354 c 0.97818,0.97817 2.44542,1.95634 3.4236,2.44543 1.46724,0.48908 2.9345,0.48908 4.40174,0.48908 1.46726,0 2.9345,-0.48908 3.91268,-1.46725 1.46725,-0.48909 2.44542,-1.46726 3.42359,-2.9345 L 841.09701,130.10496 c 11.24894,-13.69436 25.43237,-24.45421 41.57215,-31.790479 16.13978,-7.336245 33.74682,-11.738008 51.35386,-11.738008 h 634.83128 c 17.607,0 34.7249,3.91268 50.3756,10.759843 15.6508,7.336264 29.8342,17.607044 41.5722,30.323224 11.2489,12.71619 20.0525,27.87781 24.9434,44.50667 4.8908,16.62887 6.358,33.74683 3.9125,50.86477 -4.4017,29.34505 -19.5633,56.24469 -42.5502,75.31898 -22.987,19.07429 -52.3321,29.83414 -82.6553,29.34506 h -355.5643 c -1.9562,0 -3.4235,0.48908 -4.8908,1.46725 -1.4671,0.97817 -2.9344,2.44542 -3.4236,3.91268 -0.9781,1.46725 -0.9781,3.42359 -0.9781,4.89084 -1.4673,1.95633 -0.9782,3.91267 0,5.37993 z"
   id="path22"
   style="stroke-width:4.89085" />
</svg>
